<svg width="90" height="86.5" xmlns="http://www.w3.org/2000/svg" xmlns:svg="http://www.w3.org/2000/svg">
	<style type="text/css">.st0{fill:none;stroke:#FFFFFF;stroke-width:2;stroke-linejoin:round;stroke-miterlimit:10;}
		.st1{opacity:0.2;fill:none;stroke:#FFFFFF;stroke-width:2;stroke-linejoin:round;stroke-miterlimit:10;}
		.st2{fill:#FFFFFF;}</style>
	<g>
		<title>Layer 1</title>
		<rect id="svg_1" height="60" width="30" class="st0" transform="matrix(-0.7071,-0.7071,0.7071,-0.7071,69.033,94.234) " y="2.8" x="39"/>
		<rect id="svg_2" height="60" width="30" class="st0" transform="matrix(-0.7071,0.7071,-0.7071,-0.7071,79.234,32.8198) " y="2.8" x="17.8"/>
		<rect id="svg_3" height="60" width="30" class="st1" transform="matrix(-0.7071,-0.7071,0.7071,-0.7071,54.3112,129.7757) " y="23.6" x="39"/>
		<rect id="svg_4" height="60" width="30" class="st1" transform="matrix(-0.7071,0.7071,-0.7071,-0.7071,93.9558,68.3614) " y="23.6" x="17.8"/>
		<polygon id="svg_5" points="1,22.2 1,43 22.2,64.2 22.2,43.4 " class="st0"/>
		<polygon id="svg_6" points="43.4,64.6 43.4,85.5 22.2,64.2 22.2,43.4 " class="st0"/>
		<polygon id="svg_7" points="85.9,22.2 85.9,43 64.6,64.2 64.6,43.4 " class="st0"/>
		<polygon id="svg_8" points="43.4,64.6 64.6,43.4 64.6,64.2 43.4,85.5 " class="st0"/>
		<line id="svg_9" y2="21.8" x2="22.2" y1="1" x1="22.2" class="st1"/>
		<line id="svg_10" y2="21.8" x2="64.6" y1="1" x1="64.6" class="st1"/>
		<line id="svg_11" y2="43.1" x2="43.4" y1="22.1" x1="43.4" class="st1"/>
	</g>
</svg>